<?xml version="1.0" standalone="no"?>
<!DOCTYPE svg PUBLIC "-//W3C//DTD SVG 20010904//EN"
 "http://www.w3.org/TR/2001/REC-SVG-20010904/DTD/svg10.dtd">
<svg version="1.0" xmlns="http://www.w3.org/2000/svg"
 width="328.000000pt" height="328.000000pt" viewBox="0 0 328.000000 328.000000"
 preserveAspectRatio="xMidYMid meet">
<metadata>
Created by potrace 1.11, written by Peter Selinger 2001-2013
</metadata>
<g transform="translate(0.000000,328.000000) scale(0.100000,-0.100000)"
fill="#000000" stroke="none">
<path d="M1527 3003 c-194 -40 -493 -185 -607 -296 -58 -56 -129 -175 -246
-414 -63 -127 -114 -236 -114 -242 0 -22 -19 -18 -94 20 -43 21 -88 39 -100
39 -33 0 -60 -34 -116 -147 -55 -113 -66 -151 -75 -268 -10 -143 -8 -135 -84
-264 -17 -29 -43 -70 -56 -89 -26 -39 -32 -95 -17 -177 5 -24 3 -49 -3 -62
-21 -40 -2 -173 35 -241 29 -54 41 -67 85 -91 84 -45 218 -14 283 64 l27 33
66 -61 c120 -113 379 -322 478 -385 109 -71 291 -128 474 -148 87 -10 427 -12
509 -4 201 21 414 143 643 367 76 75 185 196 229 255 16 21 31 38 35 38 3 0
16 -15 28 -34 23 -36 94 -82 138 -90 88 -16 203 67 221 160 11 52 10 389 -1
462 -5 36 -20 57 -95 137 -124 132 -152 183 -166 304 -3 31 -10 66 -15 79 -5
12 -7 22 -4 22 2 0 -5 26 -16 57 -34 101 -83 153 -142 153 -26 0 -89 -32 -119
-60 -21 -19 -21 -19 -58 90 -54 154 -136 343 -189 430 -25 41 -72 102 -105
135 -54 53 -76 67 -196 117 -281 119 -451 148 -633 111z"/>
</g>
</svg>
